<mxfile host="app.diagrams.net" modified="2023-08-14T09:42:18.751Z" agent="Mozilla/5.0 (Macintosh; Intel Mac OS X 10_15_7) AppleWebKit/537.36 (KHTML, like Gecko) Chrome/115.0.0.0 Safari/537.36" etag="aHgODEU8yILkoEK6zVUL" version="21.6.8" type="device">
  <diagram name="Page-1" id="wyaowUpXAVMVxgWxzrrn">
    <mxGraphModel dx="2191" dy="1849" grid="1" gridSize="10" guides="1" tooltips="1" connect="1" arrows="1" fold="1" page="0" pageScale="1" pageWidth="827" pageHeight="1169" math="0" shadow="0">
      <root>
        <mxCell id="0" />
        <mxCell id="1" parent="0" />
        <mxCell id="_Q6uZGGRPYY9oxSEWWTm-2" value="OrderTo" style="swimlane;fontStyle=1;align=center;verticalAlign=top;childLayout=stackLayout;horizontal=1;startSize=26;horizontalStack=0;resizeParent=1;resizeParentMax=0;resizeLast=0;collapsible=1;marginBottom=0;whiteSpace=wrap;html=1;" parent="1" vertex="1">
          <mxGeometry x="-215" y="-700" width="230" height="290" as="geometry" />
        </mxCell>
        <mxCell id="_Q6uZGGRPYY9oxSEWWTm-3" value="- orderNumber: Integer&lt;br&gt;- customerName: String&lt;br&gt;- area: BigDecimal&lt;br&gt;- materialCost: BigDecimal&lt;br&gt;- laborCost: BigDecimal&lt;br&gt;- tax: BigDecimal&lt;br&gt;- total: BigDecimal&lt;br&gt;&amp;nbsp;- TaxTo fields &amp;amp; ProductTo fields" style="text;strokeColor=none;fillColor=none;align=left;verticalAlign=top;spacingLeft=4;spacingRight=4;overflow=hidden;rotatable=0;points=[[0,0.5],[1,0.5]];portConstraint=eastwest;whiteSpace=wrap;html=1;" parent="_Q6uZGGRPYY9oxSEWWTm-2" vertex="1">
          <mxGeometry y="26" width="230" height="154" as="geometry" />
        </mxCell>
        <mxCell id="_Q6uZGGRPYY9oxSEWWTm-4" value="" style="line;strokeWidth=1;fillColor=none;align=left;verticalAlign=middle;spacingTop=-1;spacingLeft=3;spacingRight=3;rotatable=0;labelPosition=right;points=[];portConstraint=eastwest;strokeColor=inherit;" parent="_Q6uZGGRPYY9oxSEWWTm-2" vertex="1">
          <mxGeometry y="180" width="230" height="8" as="geometry" />
        </mxCell>
        <mxCell id="_Q6uZGGRPYY9oxSEWWTm-5" value="+ OrderTo(orderNumber, customerName, taxTo, productTo, area) {}&lt;br&gt;+ OrderTo(will all fields, for reading in from file)" style="text;strokeColor=none;fillColor=none;align=left;verticalAlign=top;spacingLeft=4;spacingRight=4;overflow=hidden;rotatable=0;points=[[0,0.5],[1,0.5]];portConstraint=eastwest;whiteSpace=wrap;html=1;" parent="_Q6uZGGRPYY9oxSEWWTm-2" vertex="1">
          <mxGeometry y="188" width="230" height="102" as="geometry" />
        </mxCell>
        <mxCell id="UNRrNmJ66YdCpk9XHk-n-2" value="" style="edgeStyle=orthogonalEdgeStyle;rounded=0;orthogonalLoop=1;jettySize=auto;html=1;" parent="1" source="_Q6uZGGRPYY9oxSEWWTm-6" target="UNRrNmJ66YdCpk9XHk-n-1" edge="1">
          <mxGeometry relative="1" as="geometry" />
        </mxCell>
        <mxCell id="_Q6uZGGRPYY9oxSEWWTm-6" value="Start" style="ellipse;whiteSpace=wrap;html=1;" parent="1" vertex="1">
          <mxGeometry x="1317.5" y="-990" width="120" height="80" as="geometry" />
        </mxCell>
        <mxCell id="_Q6uZGGRPYY9oxSEWWTm-12" value="" style="edgeStyle=orthogonalEdgeStyle;rounded=0;orthogonalLoop=1;jettySize=auto;html=1;" parent="1" source="_Q6uZGGRPYY9oxSEWWTm-9" target="_Q6uZGGRPYY9oxSEWWTm-11" edge="1">
          <mxGeometry relative="1" as="geometry" />
        </mxCell>
        <mxCell id="_Q6uZGGRPYY9oxSEWWTm-29" value="" style="edgeStyle=orthogonalEdgeStyle;rounded=0;orthogonalLoop=1;jettySize=auto;html=1;" parent="1" source="_Q6uZGGRPYY9oxSEWWTm-9" target="_Q6uZGGRPYY9oxSEWWTm-28" edge="1">
          <mxGeometry relative="1" as="geometry" />
        </mxCell>
        <mxCell id="_Q6uZGGRPYY9oxSEWWTm-9" value="1. Display orders&lt;br&gt;2. Add an order&lt;br&gt;3. Edit an order&lt;br&gt;4. Remove an order&lt;br&gt;5. Export all data&lt;br&gt;&lt;br&gt;menuChoice" style="rhombus;whiteSpace=wrap;html=1;" parent="1" vertex="1">
          <mxGeometry x="1255" y="-570" width="245" height="230" as="geometry" />
        </mxCell>
        <mxCell id="_Q6uZGGRPYY9oxSEWWTm-15" value="" style="edgeStyle=orthogonalEdgeStyle;rounded=0;orthogonalLoop=1;jettySize=auto;html=1;" parent="1" source="_Q6uZGGRPYY9oxSEWWTm-11" target="_Q6uZGGRPYY9oxSEWWTm-14" edge="1">
          <mxGeometry relative="1" as="geometry" />
        </mxCell>
        <mxCell id="_Q6uZGGRPYY9oxSEWWTm-11" value="asks user for date&lt;br&gt;MMDDYYYY" style="shape=parallelogram;perimeter=parallelogramPerimeter;whiteSpace=wrap;html=1;fixedSize=1;" parent="1" vertex="1">
          <mxGeometry x="1000" y="-487.5" width="140" height="65" as="geometry" />
        </mxCell>
        <mxCell id="_Q6uZGGRPYY9oxSEWWTm-13" value="menuChoice == 1" style="text;html=1;align=center;verticalAlign=middle;resizable=0;points=[];autosize=1;strokeColor=none;fillColor=none;" parent="1" vertex="1">
          <mxGeometry x="1140" y="-485" width="120" height="30" as="geometry" />
        </mxCell>
        <mxCell id="_Q6uZGGRPYY9oxSEWWTm-17" value="" style="edgeStyle=orthogonalEdgeStyle;rounded=0;orthogonalLoop=1;jettySize=auto;html=1;" parent="1" source="_Q6uZGGRPYY9oxSEWWTm-14" target="_Q6uZGGRPYY9oxSEWWTm-16" edge="1">
          <mxGeometry relative="1" as="geometry" />
        </mxCell>
        <mxCell id="_Q6uZGGRPYY9oxSEWWTm-21" value="" style="edgeStyle=orthogonalEdgeStyle;rounded=0;orthogonalLoop=1;jettySize=auto;html=1;" parent="1" source="_Q6uZGGRPYY9oxSEWWTm-14" target="_Q6uZGGRPYY9oxSEWWTm-20" edge="1">
          <mxGeometry relative="1" as="geometry" />
        </mxCell>
        <mxCell id="_Q6uZGGRPYY9oxSEWWTm-14" value="if date exists?" style="rhombus;whiteSpace=wrap;html=1;" parent="1" vertex="1">
          <mxGeometry x="810" y="-497.5" width="110" height="85" as="geometry" />
        </mxCell>
        <mxCell id="_Q6uZGGRPYY9oxSEWWTm-16" value="display&lt;br&gt;fetchOrdersForOrderDate():" style="shape=parallelogram;perimeter=parallelogramPerimeter;whiteSpace=wrap;html=1;fixedSize=1;fillColor=#33FF99;" parent="1" vertex="1">
          <mxGeometry x="550" y="-477.5" width="210" height="45" as="geometry" />
        </mxCell>
        <mxCell id="_Q6uZGGRPYY9oxSEWWTm-18" value="Yes" style="text;html=1;align=center;verticalAlign=middle;resizable=0;points=[];autosize=1;strokeColor=none;fillColor=none;" parent="1" vertex="1">
          <mxGeometry x="750" y="-482" width="40" height="30" as="geometry" />
        </mxCell>
        <mxCell id="_Q6uZGGRPYY9oxSEWWTm-22" style="edgeStyle=orthogonalEdgeStyle;rounded=0;orthogonalLoop=1;jettySize=auto;html=1;" parent="1" source="_Q6uZGGRPYY9oxSEWWTm-20" edge="1">
          <mxGeometry relative="1" as="geometry">
            <mxPoint x="1380" y="-640" as="targetPoint" />
          </mxGeometry>
        </mxCell>
        <mxCell id="_Q6uZGGRPYY9oxSEWWTm-20" value="display error message" style="shape=parallelogram;perimeter=parallelogramPerimeter;whiteSpace=wrap;html=1;fixedSize=1;" parent="1" vertex="1">
          <mxGeometry x="805" y="-670" width="120" height="60" as="geometry" />
        </mxCell>
        <mxCell id="_Q6uZGGRPYY9oxSEWWTm-23" value="No" style="text;html=1;align=center;verticalAlign=middle;resizable=0;points=[];autosize=1;strokeColor=none;fillColor=none;" parent="1" vertex="1">
          <mxGeometry x="830" y="-542" width="40" height="30" as="geometry" />
        </mxCell>
        <mxCell id="_Q6uZGGRPYY9oxSEWWTm-24" value="OrderDao" style="swimlane;fontStyle=1;align=center;verticalAlign=top;childLayout=stackLayout;horizontal=1;startSize=26;horizontalStack=0;resizeParent=1;resizeParentMax=0;resizeLast=0;collapsible=1;marginBottom=0;whiteSpace=wrap;html=1;fillColor=#66FFB3;" parent="1" vertex="1">
          <mxGeometry x="-245" y="-990" width="290" height="270" as="geometry" />
        </mxCell>
        <mxCell id="_Q6uZGGRPYY9oxSEWWTm-25" value="- Map&amp;lt;String, List&amp;lt;OrderTo&amp;gt;&amp;gt; hashmapDateAndOrderCollections = new HashMap&amp;lt;&amp;gt;()" style="text;strokeColor=none;fillColor=none;align=left;verticalAlign=top;spacingLeft=4;spacingRight=4;overflow=hidden;rotatable=0;points=[[0,0.5],[1,0.5]];portConstraint=eastwest;whiteSpace=wrap;html=1;" parent="_Q6uZGGRPYY9oxSEWWTm-24" vertex="1">
          <mxGeometry y="26" width="290" height="104" as="geometry" />
        </mxCell>
        <mxCell id="_Q6uZGGRPYY9oxSEWWTm-26" value="" style="line;strokeWidth=1;fillColor=none;align=left;verticalAlign=middle;spacingTop=-1;spacingLeft=3;spacingRight=3;rotatable=0;labelPosition=right;points=[];portConstraint=eastwest;strokeColor=inherit;" parent="_Q6uZGGRPYY9oxSEWWTm-24" vertex="1">
          <mxGeometry y="130" width="290" height="8" as="geometry" />
        </mxCell>
        <mxCell id="_Q6uZGGRPYY9oxSEWWTm-27" value="+ readFromOrderFolder(): Map&amp;lt;String, List&amp;lt;OrderTo&amp;gt;&amp;gt;&lt;br&gt;+ readFromOrderFile(): OrderTo&lt;br&gt;+ fetchOrdersForOrderDate():&lt;br&gt;+ fetchOrder(orderNumber): OrderTo" style="text;strokeColor=none;fillColor=none;align=left;verticalAlign=top;spacingLeft=4;spacingRight=4;overflow=hidden;rotatable=0;points=[[0,0.5],[1,0.5]];portConstraint=eastwest;whiteSpace=wrap;html=1;" parent="_Q6uZGGRPYY9oxSEWWTm-24" vertex="1">
          <mxGeometry y="138" width="290" height="132" as="geometry" />
        </mxCell>
        <mxCell id="_Q6uZGGRPYY9oxSEWWTm-32" value="" style="edgeStyle=orthogonalEdgeStyle;rounded=0;orthogonalLoop=1;jettySize=auto;html=1;entryX=0.5;entryY=0;entryDx=0;entryDy=0;" parent="1" source="_Q6uZGGRPYY9oxSEWWTm-28" target="_Q6uZGGRPYY9oxSEWWTm-33" edge="1">
          <mxGeometry relative="1" as="geometry" />
        </mxCell>
        <mxCell id="_Q6uZGGRPYY9oxSEWWTm-28" value="asks the user for:&lt;br&gt;&amp;nbsp;- order date (must be future date)&lt;br&gt;- customer name (must be non blank and charactera [a-z][0-9],.)&lt;br&gt;- state (check agaist file for valid states)&lt;br&gt;- product type (display showProductTypesAndPrices() )&lt;br&gt;- area (positive decimal &amp;gt;= 100 sq ft)" style="shape=parallelogram;perimeter=parallelogramPerimeter;whiteSpace=wrap;html=1;fixedSize=1;" parent="1" vertex="1">
          <mxGeometry x="1192.5" y="-260" width="370" height="140" as="geometry" />
        </mxCell>
        <mxCell id="_Q6uZGGRPYY9oxSEWWTm-30" value="&lt;span style=&quot;color: rgb(0, 0, 0); font-family: Helvetica; font-size: 12px; font-style: normal; font-variant-ligatures: normal; font-variant-caps: normal; font-weight: 400; letter-spacing: normal; orphans: 2; text-align: center; text-indent: 0px; text-transform: none; widows: 2; word-spacing: 0px; -webkit-text-stroke-width: 0px; background-color: rgb(255, 255, 255); text-decoration-thickness: initial; text-decoration-style: initial; text-decoration-color: initial; float: none; display: inline !important;&quot;&gt;menuChoice == 2&lt;/span&gt;" style="text;whiteSpace=wrap;html=1;" parent="1" vertex="1">
          <mxGeometry x="1385" y="-320" width="130" height="40" as="geometry" />
        </mxCell>
        <mxCell id="_Q6uZGGRPYY9oxSEWWTm-36" value="" style="edgeStyle=orthogonalEdgeStyle;rounded=0;orthogonalLoop=1;jettySize=auto;html=1;" parent="1" source="_Q6uZGGRPYY9oxSEWWTm-31" target="_Q6uZGGRPYY9oxSEWWTm-35" edge="1">
          <mxGeometry relative="1" as="geometry" />
        </mxCell>
        <mxCell id="_Q6uZGGRPYY9oxSEWWTm-31" value="Calculate and assign variables&lt;br&gt;- orderNumber&lt;br&gt;- taxRate&lt;br&gt;- costPerSquareFoot&lt;br&gt;- laborCostPerSquareFoot&lt;br&gt;- materialCost&lt;br&gt;- laborCost&lt;br&gt;- tax&lt;br&gt;- total" style="rounded=0;whiteSpace=wrap;html=1;" parent="1" vertex="1">
          <mxGeometry x="1240" y="370" width="230" height="160" as="geometry" />
        </mxCell>
        <mxCell id="_Q6uZGGRPYY9oxSEWWTm-34" value="" style="edgeStyle=orthogonalEdgeStyle;rounded=0;orthogonalLoop=1;jettySize=auto;html=1;" parent="1" source="_Q6uZGGRPYY9oxSEWWTm-33" target="_Q6uZGGRPYY9oxSEWWTm-31" edge="1">
          <mxGeometry relative="1" as="geometry" />
        </mxCell>
        <mxCell id="_Q6uZGGRPYY9oxSEWWTm-33" value="assign user input to variables for objectTo fields" style="rounded=0;whiteSpace=wrap;html=1;" parent="1" vertex="1">
          <mxGeometry x="1285" y="210" width="140" height="90" as="geometry" />
        </mxCell>
        <mxCell id="_Q6uZGGRPYY9oxSEWWTm-35" value="create objectTo and add it to the collection&lt;br&gt;addOrder();" style="rounded=0;whiteSpace=wrap;html=1;fillColor=#33FF99;" parent="1" vertex="1">
          <mxGeometry x="1285" y="590" width="140" height="90" as="geometry" />
        </mxCell>
        <mxCell id="_Q6uZGGRPYY9oxSEWWTm-37" value="show summary&amp;nbsp;" style="rounded=0;whiteSpace=wrap;html=1;" parent="1" vertex="1">
          <mxGeometry x="1375" width="140" height="90" as="geometry" />
        </mxCell>
        <mxCell id="_Q6uZGGRPYY9oxSEWWTm-38" value="ask user to confimr" style="shape=parallelogram;perimeter=parallelogramPerimeter;whiteSpace=wrap;html=1;fixedSize=1;" parent="1" vertex="1">
          <mxGeometry x="1340" y="130" width="120" height="60" as="geometry" />
        </mxCell>
        <mxCell id="_Q6uZGGRPYY9oxSEWWTm-43" value="TaxTo" style="swimlane;fontStyle=1;align=center;verticalAlign=top;childLayout=stackLayout;horizontal=1;startSize=26;horizontalStack=0;resizeParent=1;resizeParentMax=0;resizeLast=0;collapsible=1;marginBottom=0;whiteSpace=wrap;html=1;" parent="1" vertex="1">
          <mxGeometry x="-330" y="-360" width="230" height="270" as="geometry" />
        </mxCell>
        <mxCell id="_Q6uZGGRPYY9oxSEWWTm-44" value="- stateAbbreviation: String&lt;br&gt;- stateName: String (could do enum)&lt;br&gt;- taxRate: BigDecimal" style="text;strokeColor=none;fillColor=none;align=left;verticalAlign=top;spacingLeft=4;spacingRight=4;overflow=hidden;rotatable=0;points=[[0,0.5],[1,0.5]];portConstraint=eastwest;whiteSpace=wrap;html=1;" parent="_Q6uZGGRPYY9oxSEWWTm-43" vertex="1">
          <mxGeometry y="26" width="230" height="144" as="geometry" />
        </mxCell>
        <mxCell id="_Q6uZGGRPYY9oxSEWWTm-45" value="" style="line;strokeWidth=1;fillColor=none;align=left;verticalAlign=middle;spacingTop=-1;spacingLeft=3;spacingRight=3;rotatable=0;labelPosition=right;points=[];portConstraint=eastwest;strokeColor=inherit;" parent="_Q6uZGGRPYY9oxSEWWTm-43" vertex="1">
          <mxGeometry y="170" width="230" height="8" as="geometry" />
        </mxCell>
        <mxCell id="_Q6uZGGRPYY9oxSEWWTm-46" value="+ getters only" style="text;strokeColor=none;fillColor=none;align=left;verticalAlign=top;spacingLeft=4;spacingRight=4;overflow=hidden;rotatable=0;points=[[0,0.5],[1,0.5]];portConstraint=eastwest;whiteSpace=wrap;html=1;" parent="_Q6uZGGRPYY9oxSEWWTm-43" vertex="1">
          <mxGeometry y="178" width="230" height="92" as="geometry" />
        </mxCell>
        <mxCell id="_Q6uZGGRPYY9oxSEWWTm-47" value="ProductTo" style="swimlane;fontStyle=1;align=center;verticalAlign=top;childLayout=stackLayout;horizontal=1;startSize=26;horizontalStack=0;resizeParent=1;resizeParentMax=0;resizeLast=0;collapsible=1;marginBottom=0;whiteSpace=wrap;html=1;" parent="1" vertex="1">
          <mxGeometry x="-60" y="-360" width="240" height="270" as="geometry" />
        </mxCell>
        <mxCell id="_Q6uZGGRPYY9oxSEWWTm-48" value="- productType: String&lt;br&gt;- costPerSquareFoot: BigDecimal&lt;br&gt;- laborCostPerSquareFoot: BigDecimal" style="text;strokeColor=none;fillColor=none;align=left;verticalAlign=top;spacingLeft=4;spacingRight=4;overflow=hidden;rotatable=0;points=[[0,0.5],[1,0.5]];portConstraint=eastwest;whiteSpace=wrap;html=1;" parent="_Q6uZGGRPYY9oxSEWWTm-47" vertex="1">
          <mxGeometry y="26" width="240" height="134" as="geometry" />
        </mxCell>
        <mxCell id="_Q6uZGGRPYY9oxSEWWTm-49" value="" style="line;strokeWidth=1;fillColor=none;align=left;verticalAlign=middle;spacingTop=-1;spacingLeft=3;spacingRight=3;rotatable=0;labelPosition=right;points=[];portConstraint=eastwest;strokeColor=inherit;" parent="_Q6uZGGRPYY9oxSEWWTm-47" vertex="1">
          <mxGeometry y="160" width="240" height="8" as="geometry" />
        </mxCell>
        <mxCell id="_Q6uZGGRPYY9oxSEWWTm-50" value="+ getters only" style="text;strokeColor=none;fillColor=none;align=left;verticalAlign=top;spacingLeft=4;spacingRight=4;overflow=hidden;rotatable=0;points=[[0,0.5],[1,0.5]];portConstraint=eastwest;whiteSpace=wrap;html=1;" parent="_Q6uZGGRPYY9oxSEWWTm-47" vertex="1">
          <mxGeometry y="168" width="240" height="102" as="geometry" />
        </mxCell>
        <mxCell id="_Q6uZGGRPYY9oxSEWWTm-59" value="materialCost = area * costPerSquareFoot&lt;br&gt;laborCost = area * laborCostPerSquareFoot&lt;br&gt;tax = (materialCost + laborCost) * (taxRate/100)&lt;br&gt;total = materialCost + labourCost + tax" style="rounded=0;whiteSpace=wrap;html=1;" parent="1" vertex="1">
          <mxGeometry x="-590" y="-620" width="270" height="150" as="geometry" />
        </mxCell>
        <mxCell id="_Q6uZGGRPYY9oxSEWWTm-60" style="edgeStyle=orthogonalEdgeStyle;rounded=0;orthogonalLoop=1;jettySize=auto;html=1;entryX=1;entryY=0.433;entryDx=0;entryDy=0;entryPerimeter=0;" parent="1" source="_Q6uZGGRPYY9oxSEWWTm-3" target="_Q6uZGGRPYY9oxSEWWTm-59" edge="1">
          <mxGeometry relative="1" as="geometry" />
        </mxCell>
        <mxCell id="_Q6uZGGRPYY9oxSEWWTm-66" value="Map is the interface we will use for HashMap. The keys will be the order dates (they are unique) and the values will be a array list collection of all the orders objects (orderTo) from that day." style="rounded=0;whiteSpace=wrap;html=1;" parent="1" vertex="1">
          <mxGeometry x="-635" y="-922.5" width="240" height="135" as="geometry" />
        </mxCell>
        <mxCell id="_Q6uZGGRPYY9oxSEWWTm-70" value="" style="endArrow=none;dashed=1;html=1;dashPattern=1 3;strokeWidth=2;rounded=0;exitX=0.5;exitY=0;exitDx=0;exitDy=0;entryX=-0.013;entryY=0.09;entryDx=0;entryDy=0;entryPerimeter=0;" parent="1" source="_Q6uZGGRPYY9oxSEWWTm-66" target="_Q6uZGGRPYY9oxSEWWTm-25" edge="1">
          <mxGeometry width="50" height="50" relative="1" as="geometry">
            <mxPoint x="190" y="-360" as="sourcePoint" />
            <mxPoint x="-260" y="-950" as="targetPoint" />
          </mxGeometry>
        </mxCell>
        <mxCell id="_Q6uZGGRPYY9oxSEWWTm-71" value="List&amp;lt;OrderTo&amp;gt; could also be Set&amp;lt;OrderTo&amp;gt;" style="text;html=1;align=center;verticalAlign=middle;resizable=0;points=[];autosize=1;strokeColor=none;fillColor=none;" parent="1" vertex="1">
          <mxGeometry x="-205" y="-1040" width="250" height="30" as="geometry" />
        </mxCell>
        <mxCell id="_Q6uZGGRPYY9oxSEWWTm-72" value="To list all values and all keys:&lt;br&gt;- The values of a map are a collection (as there can be duplicates) so &lt;br&gt;Collection&amp;lt;List&amp;lt;OrderTo&amp;gt;&amp;gt; ordersCollectionForAllDates =&amp;nbsp;hashmapDateAndOrderCollections.values();&lt;br&gt;-The keys of a map are a set (as they are all distinct)&lt;br&gt;Set&amp;lt;DateTime&amp;gt; allOrderDates =&amp;nbsp;hashmapDateAndOrderCollections.keySet();" style="text;html=1;align=center;verticalAlign=middle;resizable=0;points=[];autosize=1;strokeColor=none;fillColor=none;" parent="1" vertex="1">
          <mxGeometry x="-890" y="-1040" width="570" height="90" as="geometry" />
        </mxCell>
        <mxCell id="UNRrNmJ66YdCpk9XHk-n-4" value="" style="edgeStyle=orthogonalEdgeStyle;rounded=0;orthogonalLoop=1;jettySize=auto;html=1;" parent="1" source="UNRrNmJ66YdCpk9XHk-n-1" target="UNRrNmJ66YdCpk9XHk-n-3" edge="1">
          <mxGeometry relative="1" as="geometry" />
        </mxCell>
        <mxCell id="UNRrNmJ66YdCpk9XHk-n-1" value="read Products.txt&lt;br&gt;store line as productTo object&lt;br&gt;store all objects in productsHashMap&lt;br&gt;key: productType&lt;br&gt;value: productTo" style="rounded=0;whiteSpace=wrap;html=1;" parent="1" vertex="1">
          <mxGeometry x="1298.13" y="-880" width="158.75" height="90" as="geometry" />
        </mxCell>
        <mxCell id="UNRrNmJ66YdCpk9XHk-n-5" value="" style="edgeStyle=orthogonalEdgeStyle;rounded=0;orthogonalLoop=1;jettySize=auto;html=1;" parent="1" source="UNRrNmJ66YdCpk9XHk-n-3" target="_Q6uZGGRPYY9oxSEWWTm-9" edge="1">
          <mxGeometry relative="1" as="geometry" />
        </mxCell>
        <mxCell id="UNRrNmJ66YdCpk9XHk-n-3" value="read Taxes.txt&lt;br&gt;store line as taxTo object&lt;br&gt;store all objects in taxHashmap&lt;br&gt;key: state&lt;br&gt;value: taxTo" style="rounded=0;whiteSpace=wrap;html=1;" parent="1" vertex="1">
          <mxGeometry x="1298.13" y="-760" width="158.75" height="90" as="geometry" />
        </mxCell>
        <mxCell id="UNRrNmJ66YdCpk9XHk-n-6" value="Use" style="endArrow=open;endSize=12;dashed=1;html=1;rounded=0;entryX=0.5;entryY=0;entryDx=0;entryDy=0;exitX=0.278;exitY=1.02;exitDx=0;exitDy=0;exitPerimeter=0;" parent="1" source="_Q6uZGGRPYY9oxSEWWTm-5" target="_Q6uZGGRPYY9oxSEWWTm-43" edge="1">
          <mxGeometry width="160" relative="1" as="geometry">
            <mxPoint x="-100" y="-440" as="sourcePoint" />
            <mxPoint x="60" y="-440" as="targetPoint" />
          </mxGeometry>
        </mxCell>
        <mxCell id="UNRrNmJ66YdCpk9XHk-n-7" value="Use" style="endArrow=open;endSize=12;dashed=1;html=1;rounded=0;entryX=0.5;entryY=0;entryDx=0;entryDy=0;exitX=0.774;exitY=1.02;exitDx=0;exitDy=0;exitPerimeter=0;" parent="1" source="_Q6uZGGRPYY9oxSEWWTm-5" target="_Q6uZGGRPYY9oxSEWWTm-47" edge="1">
          <mxGeometry width="160" relative="1" as="geometry">
            <mxPoint x="-104" y="-402" as="sourcePoint" />
            <mxPoint x="-205" y="-350" as="targetPoint" />
          </mxGeometry>
        </mxCell>
        <mxCell id="UNRrNmJ66YdCpk9XHk-n-8" value="ProductDao" style="swimlane;fontStyle=1;align=center;verticalAlign=top;childLayout=stackLayout;horizontal=1;startSize=26;horizontalStack=0;resizeParent=1;resizeParentMax=0;resizeLast=0;collapsible=1;marginBottom=0;whiteSpace=wrap;html=1;fillColor=#FFFFFF;" parent="1" vertex="1">
          <mxGeometry x="210" y="-360" width="290" height="270" as="geometry" />
        </mxCell>
        <mxCell id="UNRrNmJ66YdCpk9XHk-n-9" value="- Map&amp;lt;String, ProductTo&amp;gt; productsHashMap = new HashMap&amp;lt;&amp;gt;()&lt;br&gt;" style="text;strokeColor=none;fillColor=none;align=left;verticalAlign=top;spacingLeft=4;spacingRight=4;overflow=hidden;rotatable=0;points=[[0,0.5],[1,0.5]];portConstraint=eastwest;whiteSpace=wrap;html=1;" parent="UNRrNmJ66YdCpk9XHk-n-8" vertex="1">
          <mxGeometry y="26" width="290" height="104" as="geometry" />
        </mxCell>
        <mxCell id="UNRrNmJ66YdCpk9XHk-n-10" value="" style="line;strokeWidth=1;fillColor=none;align=left;verticalAlign=middle;spacingTop=-1;spacingLeft=3;spacingRight=3;rotatable=0;labelPosition=right;points=[];portConstraint=eastwest;strokeColor=inherit;" parent="UNRrNmJ66YdCpk9XHk-n-8" vertex="1">
          <mxGeometry y="130" width="290" height="8" as="geometry" />
        </mxCell>
        <mxCell id="UNRrNmJ66YdCpk9XHk-n-11" value="+ readFromProductFile(): productsHashMap" style="text;strokeColor=none;fillColor=none;align=left;verticalAlign=top;spacingLeft=4;spacingRight=4;overflow=hidden;rotatable=0;points=[[0,0.5],[1,0.5]];portConstraint=eastwest;whiteSpace=wrap;html=1;" parent="UNRrNmJ66YdCpk9XHk-n-8" vertex="1">
          <mxGeometry y="138" width="290" height="132" as="geometry" />
        </mxCell>
        <mxCell id="UNRrNmJ66YdCpk9XHk-n-12" value="TaxDao" style="swimlane;fontStyle=1;align=center;verticalAlign=top;childLayout=stackLayout;horizontal=1;startSize=26;horizontalStack=0;resizeParent=1;resizeParentMax=0;resizeLast=0;collapsible=1;marginBottom=0;whiteSpace=wrap;html=1;fillColor=#FFFFFF;" parent="1" vertex="1">
          <mxGeometry x="-660" y="-340" width="290" height="270" as="geometry" />
        </mxCell>
        <mxCell id="UNRrNmJ66YdCpk9XHk-n-13" value="- Map&amp;lt;String, ProductTo&amp;gt; taxHashMap = new HashMap&amp;lt;&amp;gt;()" style="text;strokeColor=none;fillColor=none;align=left;verticalAlign=top;spacingLeft=4;spacingRight=4;overflow=hidden;rotatable=0;points=[[0,0.5],[1,0.5]];portConstraint=eastwest;whiteSpace=wrap;html=1;" parent="UNRrNmJ66YdCpk9XHk-n-12" vertex="1">
          <mxGeometry y="26" width="290" height="104" as="geometry" />
        </mxCell>
        <mxCell id="UNRrNmJ66YdCpk9XHk-n-14" value="" style="line;strokeWidth=1;fillColor=none;align=left;verticalAlign=middle;spacingTop=-1;spacingLeft=3;spacingRight=3;rotatable=0;labelPosition=right;points=[];portConstraint=eastwest;strokeColor=inherit;" parent="UNRrNmJ66YdCpk9XHk-n-12" vertex="1">
          <mxGeometry y="130" width="290" height="8" as="geometry" />
        </mxCell>
        <mxCell id="UNRrNmJ66YdCpk9XHk-n-15" value="+ readFromTaxFile(): taxHashMap" style="text;strokeColor=none;fillColor=none;align=left;verticalAlign=top;spacingLeft=4;spacingRight=4;overflow=hidden;rotatable=0;points=[[0,0.5],[1,0.5]];portConstraint=eastwest;whiteSpace=wrap;html=1;" parent="UNRrNmJ66YdCpk9XHk-n-12" vertex="1">
          <mxGeometry y="138" width="290" height="132" as="geometry" />
        </mxCell>
      </root>
    </mxGraphModel>
  </diagram>
</mxfile>
